ply
format ascii 1.0
comment VCGLIB generated
element vertex 403
property float x
property float y
property float z
property uchar red
property uchar green
property uchar blue
property uchar alpha
property float quality
element face 286
property list uchar int vertex_indices
end_header
-0.05818367 0.0682739 0.409898 126 130 129 255 5.867018 
-0.08553624 0.06018925 0.409898 126 130 130 255 5.958076 
-0.06271565 0.06718659 0.409898 126 130 130 255 5.860266 
-0.1083568 0.05034435 0.409898 126 131 131 255 6.126637 
-0.1175117 0.04545343 0.409898 127 131 131 255 6.153111 
-0.01707458 0.07626283 0.409898 124 126 124 255 5.977493 
0.07420754 0.07571447 0.409898 123 122 120 255 7.144618 
0.02856648 0.07677138 0.409898 123 123 121 255 6.68485 
-0.08553624 0.05802405 0.3916416 126 130 129 255 5.588995 
-0.03989518 0.06819522 0.4327186 124 127 126 255 6.546147 
-0.08553624 0.05719364 0.4327186 116 123 126 255 7.164582 
0.05138695 0.06789267 0.4327186 121 122 119 255 7.885382 
-0.06271565 0.0642004 0.4327186 120 126 127 255 6.627913 
-0.1083568 0.04659426 0.4327186 126 130 130 255 7.450347 
0.04484999 0.0682739 0.4327186 122 123 120 255 7.815728 
-0.1104912 0.04545343 0.4327186 126 130 130 255 7.456745 
-0.03930461 0.0682739 0.4327186 125 127 126 255 6.554629 
0.07157707 0.0682739 0.4327186 123 122 120 255 8.001339 
-0.03989518 0.0682739 0.4324974 125 128 126 255 6.536443 
0.05138695 0.0682739 0.4315889 122 123 120 255 7.84542 
-0.1311773 0.02120912 0.4555391 127 132 133 255 8.389889 
-0.1283194 0.02263284 0.4555391 125 130 130 255 8.497585 
-0.08758962 0.04545343 0.4555391 107 117 121 255 8.81829 
-0.03989518 0.06411803 0.4555391 111 118 119 255 7.678938 
0.05138695 0.06005228 0.4555391 111 114 113 255 8.98352 
0.005745888 0.06520581 0.4555391 113 117 117 255 8.068177 
0.09702802 0.05960774 0.4555391 113 114 113 255 9.015078 
-0.1083568 0.03361154 0.4555391 125 129 130 255 8.873424 
-0.06271565 0.05726552 0.4555391 108 117 121 255 8.323371 
0.02856648 0.06195509 0.4555391 111 116 115 255 8.659869 
-0.01707458 0.06668031 0.4555391 116 120 119 255 7.620623 
0.07420754 0.05932391 0.4555391 112 113 113 255 9.101892 
-0.08553624 0.04665625 0.4555391 107 117 121 255 8.787724 
-0.1311773 0.02263284 0.4538649 125 130 131 255 8.301621 
0.07420754 0.0682739 0.4342712 123 122 120 255 8.049205 
-0.1083568 0.04545343 0.4360319 125 130 130 255 7.655201 
-0.01707458 0.0682739 0.4364454 124 126 124 255 7.035341 
0.02856648 0.0682739 0.4364273 122 123 121 255 7.719018 
0.09702802 0.0682739 0.44068 123 121 119 255 8.177402 
0.005745888 0.0682739 0.4380456 123 124 122 255 7.427553 
-0.03430641 0.06987166 0.4242916 125 127 126 255 6.394185 
0.05333745 0.07055092 0.4267887 123 123 120 255 7.608597 
0.09702802 0.07338905 0.4273657 123 121 119 255 7.530304 
0.005745888 0.07157111 0.4261429 123 124 122 255 6.968852 
0.1084384 0.01775599 0.4669494 90 96 100 255 10.89404 
0.08561778 0.01601017 0.4669494 71 85 93 255 11.15173 
0.08561778 -0.01348245 0.4669494 131 123 122 255 11.32569 
0.09994209 -0.01159799 0.4669494 130 124 123 255 11.20843 
0.09702802 0.01199615 0.4669494 71 83 91 255 11.12859 
0.07624209 0.02263284 0.4669494 97 103 106 255 11.04032 
0.07832658 -0.01159799 0.4669494 126 122 120 255 11.37293 
0.09702802 -0.01422477 0.4669494 133 125 124 255 11.22875 
0.113053 0.02263284 0.4669494 100 104 106 255 10.69906 
0.09702802 -0.006430864 0.4669494 121 118 118 255 11.24665 
0.08561778 -0.009051323 0.4669494 125 119 119 255 11.33702 
0.09702802 0.02263284 0.4657596 90 97 101 255 10.90323 
0.08561778 0.02263284 0.4655004 95 101 104 255 10.98701 
0.09702802 -0.01159799 0.4652711 131 124 123 255 11.2273 
0.08561778 -0.01159799 0.4660542 129 121 121 255 11.32589 
0.1084384 0.02263284 0.4665304 96 101 104 255 10.77227 
-0.005664349 -0.02733886 0.4783596 117 116 111 255 11.39511 
-0.1006936 -0.0001877546 0.4783596 111 123 130 255 10.18301 
-0.0802604 0.0112226 0.4783596 86 103 113 255 10.48049 
-0.05130541 -0.02550411 0.4783596 146 149 147 255 11.194 
0.03997672 -0.02393293 0.4783596 146 141 133 255 11.43242 
-0.02848494 -0.01176655 0.4783596 88 101 106 255 11.32771 
0.1084384 -0.0135802 0.4783596 120 118 115 255 11.11371 
0.08561778 -0.01849723 0.4783596 145 131 127 255 11.32369 
-0.05310643 -0.02300823 0.4783596 140 145 145 255 11.17391 
-0.08553624 0.005195737 0.4783596 104 117 125 255 10.46674 
0.01715612 -0.02495325 0.4783596 162 157 150 255 11.42665 
0.02856648 -0.02403665 0.4783596 156 151 143 255 11.43587 
0.09702802 -0.01742089 0.4783596 144 132 127 255 11.23494 
-0.005664349 -0.009042859 0.4783596 79 90 94 255 11.3992 
-0.02848494 -0.02665067 0.4783596 146 145 140 255 11.34427 
-0.1083568 -0.001733899 0.4783596 137 143 147 255 9.985526 
-0.03989518 -0.01826477 0.4783596 128 133 133 255 11.27928 
-0.03989518 -0.02671266 0.4783596 151 151 147 255 11.28507 
-0.01707458 -0.02746642 0.4783596 126 124 119 255 11.37615 
-0.01707458 -0.01045203 0.4783596 79 92 96 255 11.36961 
0.005745888 -0.02639008 0.4783596 138 136 130 255 11.41166 
0.01715612 -0.003483891 0.4783596 110 117 118 255 11.4332 
0.04955709 -0.02300823 0.4783596 141 136 128 255 11.42687 
0.1108385 -0.01159799 0.4783596 119 117 114 255 11.08298 
0.03718174 -0.0001877546 0.4783596 68 85 92 255 11.45197 
0.07420754 -0.01966536 0.4783596 139 133 126 255 11.37893 
-0.02784979 -0.01159799 0.4783596 86 99 104 255 11.3302 
-0.05130541 -0.02065039 0.4783596 137 142 142 255 11.18862 
-0.07412601 0.01644409 0.4783596 81 99 110 255 10.49196 
0.06279731 -0.0209446 0.4783596 136 131 124 255 11.41164 
0.005745888 -0.007367134 0.4783596 94 103 105 255 11.42316 
0.05138695 -0.02270174 0.4783596 140 135 127 255 11.42597 
0.03997672 0.0009764433 0.4783596 69 86 93 255 11.44711 
0.02856648 -0.001394868 0.4783596 90 102 105 255 11.44621 
-0.065992 0.02263284 0.4783596 92 106 113 255 10.46776 
0.04794753 0.0112226 0.4783596 100 108 109 255 11.34823 
0.03997672 0.01870835 0.4783596 101 109 111 255 11.20777 
0.03080761 0.02263284 0.4783596 104 111 111 255 11.08748 
-0.01707458 -0.02300823 0.4746376 119 119 114 255 11.3784 
-0.08553624 0.0112226 0.4765342 105 117 125 255 10.37185 
0.07420754 -0.0001877546 0.4705371 83 93 96 255 11.39677 
0.05138695 -0.01159799 0.4703668 114 117 115 255 11.4645 
-0.005664349 -0.02300823 0.4742016 110 111 106 255 11.40121 
0.03997672 -0.0001877546 0.4769804 69 85 92 255 11.45518 
0.07420754 0.0112226 0.4712642 89 98 103 255 11.29996 
-0.1083568 -0.0001877546 0.4775589 139 145 149 255 9.967583 
0.06279731 -0.01159799 0.4691984 118 120 116 255 11.43951 
0.02856648 -0.02300823 0.4764845 155 151 143 255 11.4423 
0.1084384 -0.01159799 0.4757059 120 119 116 255 11.12423 
-0.03989518 -0.02300823 0.4757122 144 146 143 255 11.28089 
0.09702802 -0.0001877546 0.4687457 92 100 103 255 11.24351 
-0.05130541 -0.02300823 0.4767616 142 146 145 255 11.18971 
-0.08553624 0.02263284 0.4722907 98 110 116 255 10.08753 
0.005745888 -0.02300823 0.4749022 135 134 128 255 11.42115 
0.08561778 -0.0001877546 0.4697895 86 95 100 255 11.33842 
-0.02848494 -0.02300823 0.4756048 141 140 136 255 11.34306 
-0.01707458 -0.01159799 0.4772078 80 92 97 255 11.37276 
0.07420754 -0.01159799 0.467647 125 123 119 255 11.39518 
0.05138695 -0.0001877546 0.4731776 76 91 96 255 11.4515 
0.01715612 -0.02300823 0.4762046 161 157 150 255 11.4355 
-0.005664349 -0.01159799 0.4761364 82 92 95 255 11.40514 
0.08561778 0.0112226 0.4695487 76 88 96 255 11.24072 
0.09702802 0.0112226 0.4672915 71 84 91 255 11.14103 
0.05138695 0.0112226 0.4774988 99 107 108 255 11.34856 
-0.07412601 0.02263284 0.4758499 94 107 114 255 10.32392 
0.03997672 -0.02300823 0.4761047 146 141 133 255 11.43972 
0.005745888 -0.01159799 0.4754441 100 108 109 255 11.43225 
0.1084384 -0.0001877546 0.4717787 106 108 107 255 11.11549 
0.07420754 0.02263284 0.4672816 98 104 107 255 11.04905 
0.06279731 -0.0001877546 0.4718746 79 91 95 255 11.43304 
0.02856648 -0.01159799 0.472828 125 129 127 255 11.46841 
0.06279731 0.0112226 0.4745606 98 105 108 255 11.33596 
0.01715612 -0.01159799 0.4743897 128 132 130 255 11.4535 
0.03997672 0.02263284 0.4765466 104 110 111 255 11.10542 
0.1084384 0.0112226 0.4686826 93 98 101 255 11.01085 
0.03997672 -0.01159799 0.4716958 114 118 116 255 11.47444 
0.05138695 0.02263284 0.4731489 104 109 111 255 11.10835 
0.06279731 0.02263284 0.4691852 100 106 108 255 11.08524 
-0.1311773 -0.0004384518 0.4783596 139 145 149 255 9.055319 
-0.06271565 0.03136539 0.4783596 93 107 114 255 10.2184 
0.02856648 0.04438972 0.4783596 106 112 112 255 10.21129 
0.003884554 0.04545343 0.4783596 100 108 110 255 10.05754 
-0.03989518 0.04539359 0.4783596 93 104 108 255 9.814651 
-0.01707458 0.02377927 0.4783596 88 99 104 255 10.88455 
0.0281496 0.04545343 0.4783596 106 112 112 255 10.15124 
0.005745888 0.04930317 0.4783596 101 109 110 255 9.825569 
0.1198486 0.04545343 0.4672796 115 114 114 255 9.696774 
-0.1083568 0.02263284 0.4654763 124 129 130 255 9.454072 
0.02856648 0.04545343 0.4774472 106 112 112 255 10.15336 
-0.06271565 0.04545343 0.4687631 99 111 117 255 9.499467 
-0.01707458 0.04545343 0.4754717 92 102 106 255 9.958441 
-0.1311773 -0.0001877546 0.4781004 139 145 149 255 9.052032 
0.07420754 0.04545343 0.4570904 111 112 112 255 10.05067 
-0.08553624 0.04545343 0.4571151 106 116 120 255 8.901566 
0.05138695 0.04545343 0.4610463 109 113 112 255 10.11455 
-0.03989518 0.04545343 0.4776504 93 104 109 255 9.810469 
0.09702802 0.04545343 0.4573528 112 113 113 255 9.940795 
-0.09566927 0.01021814 0.4747632 114 124 129 255 10.08847 
0.03844857 0.03386581 0.4741514 106 111 112 255 10.63007 
0.0840553 0.0302397 0.4633224 101 105 107 255 10.66185 
-0.07277024 0.03169513 0.4717897 97 110 116 255 9.91644 
0.1092075 0.0302397 0.4655871 104 107 108 255 10.4301 
0.06279731 0.03176105 0.4655505 104 109 110 255 10.68157 
-0.09694648 -0.02494943 0.4897699 125 132 142 255 10.4052 
-0.005664349 -0.02714527 0.4897699 139 136 131 255 11.34881 
0.08561778 -0.02249074 0.4897699 120 116 110 255 11.21948 
-0.02848494 -0.02906978 0.4897699 155 152 146 255 11.29919 
0.1084384 -0.01940954 0.4897699 109 106 102 255 11.00377 
0.01715612 0.009503961 0.4897699 95 105 107 255 11.26211 
0.01715612 -0.02426231 0.4897699 136 134 130 255 11.37622 
0.07420754 -0.02293277 0.4897699 122 119 113 255 11.28277 
-0.005664349 0.000698328 0.4897699 57 76 89 255 11.29313 
-0.09989297 -0.02300823 0.4897699 125 132 142 255 10.32931 
-0.07412601 -0.02772105 0.4897699 145 151 153 255 10.85085 
0.005745888 -0.02577221 0.4897699 135 133 129 255 11.3639 
0.1198486 -0.01344538 0.4897699 106 107 106 255 10.81865 
0.005745888 0.002922416 0.4897699 62 78 89 255 11.30613 
0.03997672 -0.02260184 0.4897699 138 133 126 255 11.38117 
-0.1083568 -0.01933026 0.4897699 131 137 145 255 10.08543 
-0.05130541 -0.03082848 0.4897699 150 150 147 255 11.15468 
-0.03989518 -0.03069711 0.4897699 154 151 147 255 11.24132 
0.06279731 -0.02219582 0.4897699 129 124 117 255 11.33563 
0.09702802 -0.02165747 0.4897699 118 113 108 255 11.12839 
0.01921415 0.0112226 0.4897699 101 109 111 255 11.243 
-0.06271565 -0.02882719 0.4897699 141 145 146 255 11.02467 
-0.01707458 -0.02826905 0.4897699 148 144 137 255 11.33034 
-0.08553624 -0.02765512 0.4897699 147 151 156 255 10.64941 
0.05138695 -0.02193832 0.4897699 133 128 121 255 11.36831 
0.02577841 -0.02300823 0.4897699 136 133 129 255 11.38446 
0.02856648 -0.02253044 0.4897699 136 133 129 255 11.38727 
0.01715612 0.0225513 0.4897699 100 108 110 255 10.99432 
-0.01707458 0.001900792 0.4897699 57 77 90 255 11.24446 
0.01704156 0.02263284 0.4897699 101 109 110 255 10.99152 
-0.02482557 0.0112226 0.4897699 78 92 99 255 11.09334 
-0.02848494 0.01676261 0.4897699 78 93 100 255 10.9694 
-0.03513229 0.02263284 0.4897699 87 99 105 255 10.77425 
-0.09694648 -0.02300823 0.4881203 125 132 142 255 10.40929 
-0.08553624 -0.02300823 0.4860118 145 151 156 255 10.66094 
-0.08553624 -0.0001877546 0.4800973 106 118 126 255 10.53131 
-0.1083568 -0.01159799 0.4840268 131 138 145 255 10.06666 
0.02856648 -0.0001877546 0.4802186 68 84 91 255 11.43615 
-0.03989518 -0.0001877546 0.4801052 44 73 93 255 11.18132 
-0.06271565 -0.02300823 0.4838165 133 140 142 255 11.05032 
-0.08553624 -0.01159799 0.4831386 114 126 135 255 10.62062 
0.02856648 -0.02300823 0.4886785 141 138 133 255 11.39456 
0.02856648 0.0112226 0.4893367 108 115 115 255 11.26884 
0.005745888 -0.0001877546 0.4868184 58 75 85 255 11.35505 
-0.01707458 -0.0001877546 0.4883291 55 76 90 255 11.27451 
-0.07412601 -0.02300823 0.4857789 140 147 150 255 10.86641 
-0.03989518 0.0112226 0.4820507 78 95 104 255 11.03591 
0.01715612 -0.0001877546 0.4818413 64 80 88 255 11.40733 
0.03997672 0.0112226 0.4851766 103 111 111 255 11.31886 
0.03997672 -0.02300823 0.4882778 141 136 129 255 11.39223 
-0.06271565 -0.0001877546 0.4816532 78 97 109 255 10.93067 
-0.07412601 -0.0001877546 0.4809716 82 100 111 255 10.74535 
0.1198486 -0.01159799 0.4876606 107 108 108 255 10.84734 
0.01715612 0.02263284 0.4897264 101 109 110 255 10.99226 
0.02856648 0.02263284 0.4800713 104 111 112 255 11.07894 
-0.07412601 -0.01159799 0.4839017 83 101 114 255 10.82881 
-0.03989518 -0.01159799 0.4793547 80 96 105 255 11.25801 
-0.09694648 -0.01159799 0.48289 139 146 150 255 10.3729 
-0.06271565 0.0112226 0.4795543 79 97 108 255 10.78305 
-0.07412601 0.0112226 0.479686 82 100 110 255 10.59441 
-0.02848494 -0.0001877546 0.4836501 48 72 89 255 11.24837 
-0.06271565 -0.01159799 0.4831011 78 97 109 255 11.01284 
-0.09694648 -0.0001877546 0.478505 108 120 128 255 10.27707 
-0.005664349 -0.0001877546 0.4889821 57 76 88 255 11.307 
-0.05130541 -0.0001877546 0.4810432 56 82 101 255 11.0771 
-0.06271565 0.02263284 0.4796602 91 106 113 255 10.52074 
-0.02848494 0.0112226 0.4874382 77 92 100 255 11.09078 
-0.05130541 -0.01159799 0.4809858 77 95 106 255 11.15819 
-0.02848494 -0.01159799 0.4785205 86 99 105 255 11.32713 
-0.05130541 0.0112226 0.4796975 78 96 106 255 10.93178 
-0.03989518 0.02263284 0.4877879 87 100 106 255 10.75297 
-0.05130541 0.02263284 0.4830868 89 102 108 255 10.66644 
-0.01141274 -0.02300823 0.5011802 85 97 107 255 11.18703 
-0.09694648 -0.03418994 0.5011802 139 144 148 255 10.27894 
0.1105988 -0.02300823 0.5011802 117 114 109 255 10.73032 
-0.07412601 -0.03304207 0.5011802 142 144 146 255 10.70845 
-0.05130541 -0.03433466 0.5011802 111 112 112 255 10.99899 
0.03997672 -0.02217138 0.5011802 106 112 114 255 11.19754 
0.06279731 -0.02326107 0.5011802 127 124 119 255 11.13262 
0.1084384 -0.02365458 0.5011802 117 114 109 255 10.75808 
0.08561778 -0.02706587 0.5011802 122 118 113 255 10.97119 
0.01715612 -0.02065921 0.5011802 81 95 106 255 11.21449 
-0.02848494 -0.0306704 0.5011802 94 100 104 255 11.13945 
0.06175613 -0.02300823 0.5011802 126 123 118 255 11.13863 
-0.06271565 -0.03295577 0.5011802 123 125 127 255 10.87603 
0.1198486 -0.01912701 0.5011802 116 113 110 255 10.57906 
-0.005664349 -0.02070904 0.5011802 83 96 108 255 11.1973 
0.005745888 -0.02004623 0.5011802 83 98 111 255 11.20995 
0.07420754 -0.02569354 0.5011802 124 120 115 255 11.05873 
-0.03989518 -0.03373802 0.5011802 99 103 105 255 11.08173 
0.05138695 -0.02220488 0.5011802 119 119 116 255 11.17587 
-0.08553624 -0.03440917 0.5011802 144 145 149 255 10.51152 
0.09702802 -0.02618086 0.5011802 118 114 109 255 10.87731 
-0.01707458 -0.02623653 0.5011802 94 99 105 255 11.17423 
0.02856648 -0.02118254 0.5011802 78 91 101 255 11.21236 
-0.1083568 -0.0330869 0.5011802 133 139 146 255 9.984617 
-0.1083568 -0.02300823 0.4925274 131 137 145 255 10.07976 
-0.005664349 -0.02300823 0.4982807 112 117 120 255 11.25093 
0.005745888 -0.02300823 0.4950586 123 125 125 255 11.31329 
-0.01707458 0.0112226 0.4936204 78 91 98 255 11.08847 
0.09702802 -0.02300823 0.4915158 119 113 108 255 11.09334 
0.07420754 -0.02300823 0.4899309 122 119 113 255 11.2803 
0.01715612 -0.02300823 0.4926377 133 132 129 255 11.35156 
0.06279731 -0.02300823 0.5001989 129 124 118 255 11.15878 
-0.02848494 0.02263284 0.4926564 86 98 104 255 10.78916 
0.1084384 -0.02300823 0.4963956 112 109 104 255 10.87105 
0.08561778 -0.02300823 0.490418 120 116 110 255 11.20684 
0.005745888 0.0112226 0.4944116 90 100 104 255 11.15363 
-0.005664349 0.0112226 0.4953433 85 97 102 255 11.10602 
-0.01707458 0.02263284 0.4982178 84 97 102 255 10.76618 
0.01715612 0.0112226 0.4905514 99 108 110 255 11.23012 
-0.005664349 0.02263284 0.4997169 90 101 105 255 10.77923 
0.005745888 0.02263284 0.4942996 96 105 108 255 10.90612 
0.005745888 0.04545343 0.4806848 100 108 110 255 10.06237 
-0.1311773 -0.02300823 0.4968433 142 147 151 255 9.124334 
-0.09217823 0.001158118 0.4788305 107 120 127 255 10.36453 
-0.05130541 0.0289315 0.4814509 91 104 110 255 10.39464 
-0.004072905 0.03043079 0.4882731 93 103 107 255 10.576 
-0.1159636 -0.01318622 0.4866478 135 141 147 255 9.732841 
0.01871037 0.03226125 0.4844673 102 109 111 255 10.62768 
-0.02959275 0.02661741 0.4875252 88 100 105 255 10.63029 
-0.09848022 -0.04582882 0.5125905 147 151 153 255 9.983239 
-0.02897549 -0.03441846 0.5125905 138 137 135 255 10.87347 
-0.05130541 -0.0404706 0.5125905 141 143 142 255 10.73396 
-0.06326807 -0.04582882 0.5125905 145 146 146 255 10.57387 
0.08561778 -0.02753234 0.5125905 123 120 115 255 10.64136 
0.03997672 -0.0230602 0.5125905 131 128 124 255 10.88723 
-0.0161041 -0.02300823 0.5125905 130 130 128 255 10.91705 
0.03961086 -0.02300823 0.5125905 130 128 124 255 10.88834 
-0.1083568 -0.04581082 0.5125905 138 143 148 255 9.727173 
0.01715612 -0.01878655 0.5125905 123 124 124 255 10.93101 
-0.06271565 -0.04522169 0.5125905 144 146 145 255 10.5857 
0.02856648 -0.02079701 0.5125905 129 129 125 255 10.9173 
-0.005664349 -0.01677382 0.5125905 123 125 125 255 10.92594 
0.06279731 -0.0266881 0.5125905 129 126 120 255 10.78448 
-0.01707458 -0.02424824 0.5125905 131 131 129 255 10.9152 
-0.03989518 -0.03787267 0.5125905 141 141 138 255 10.81985 
0.07420754 -0.02719545 0.5125905 125 122 116 255 10.72223 
0.005745888 -0.01743579 0.5125905 118 121 123 255 10.93267 
0.05138695 -0.02519536 0.5125905 132 128 122 255 10.84098 
-0.02848494 -0.03421855 0.5125905 138 137 135 255 10.87539 
0.09702802 -0.02656817 0.5125905 120 116 112 255 10.54503 
-0.03989518 -0.03441846 0.5024425 99 103 105 255 11.05396 
0.05138695 -0.02300823 0.5031476 120 120 117 255 11.12002 
-0.09694648 -0.03441846 0.5014894 139 144 148 255 10.2732 
-0.06271565 -0.03441846 0.5027595 123 125 127 255 10.84216 
0.03997672 -0.02300823 0.5056018 111 115 116 255 11.08055 
-0.08553624 -0.03441846 0.501193 144 145 149 255 10.51127 
-0.1083568 -0.03441846 0.5025934 134 139 146 255 9.958698 
-0.05130541 -0.03441846 0.5013064 111 112 112 255 10.99627 
-0.07412601 -0.03441846 0.5026393 142 144 146 255 10.6784 
-0.09694648 -0.04582882 0.5124759 147 151 153 255 10.01974 
-0.08553624 -0.04582882 0.5116882 148 151 154 255 10.25903 
-0.07412601 -0.04582882 0.5104179 146 148 148 255 10.46923 
-0.02554417 -0.03441846 0.5240007 128 130 128 255 10.58416 
-0.02848494 -0.03651953 0.5240007 129 131 129 255 10.57232 
-0.04106283 -0.04582882 0.5240007 133 135 134 255 10.48005 
0.03997672 -0.02068615 0.5240007 131 130 125 255 10.53176 
0.08561778 -0.02578783 0.5240007 130 126 121 255 10.25905 
0.06279731 -0.02399743 0.5240007 131 128 123 255 10.42078 
0.0574671 -0.02300823 0.5240007 131 128 124 255 10.45367 
-0.003646493 -0.02300823 0.5240007 127 128 125 255 10.60249 
-0.005664349 -0.02421331 0.5240007 127 128 125 255 10.60213 
-0.03989518 -0.04504108 0.5240007 133 135 134 255 10.49112 
0.02856648 -0.01869118 0.5240007 131 131 126 255 10.56724 
0.01715612 -0.0175879 0.5240007 129 129 126 255 10.58824 
0.07420754 -0.02566135 0.5240007 131 126 122 255 10.34253 
-0.01707458 -0.0296644 0.5240007 126 127 125 255 10.59938 
0.05138695 -0.02229095 0.5240007 131 129 124 255 10.48395 
0.005745888 -0.01863551 0.5240007 128 129 125 255 10.59962 
0.09702802 -0.02626705 0.5240007 130 125 121 255 10.14201 
-0.02848494 -0.03441846 0.5173413 137 137 134 255 10.75777 
-0.06271565 -0.04582882 0.5130748 145 146 145 255 10.57042 
-0.1083568 -0.04582882 0.5126076 138 144 148 255 9.726712 
0.05138695 -0.02300823 0.5196918 132 128 123 255 10.63138 
0.03997672 -0.02300823 0.512837 131 128 124 255 10.88035 
-0.005664349 -0.02300823 0.5207492 125 127 126 255 10.70028 
-0.05130541 -0.04582882 0.5176932 141 142 141 255 10.57936 
-0.1083568 -0.05293334 0.5240007 142 147 150 255 9.424569 
-0.08553624 -0.05573821 0.5240007 141 145 145 255 9.887619 
-0.06271565 -0.05287957 0.5240007 140 144 144 255 10.24422 
-0.1301572 -0.04582882 0.5240007 142 147 150 255 8.642941 
0.1128937 -0.02300823 0.5240007 128 123 120 255 9.947143 
-0.1311773 -0.04542994 0.5240007 142 147 150 255 8.591964 
0.1198486 -0.01060987 0.5240007 126 121 118 255 9.88239 
-0.09720206 -0.04866433 0.5162273 144 148 151 255 9.883485 
-0.05444992 -0.04759145 0.5196924 140 142 141 255 10.46851 
0.1038359 -0.02478111 0.5106888 122 118 113 255 10.49998 
-0.1179912 -0.03984952 0.5111648 138 144 148 255 9.386743 
-0.07231629 -0.04865539 0.5159622 144 147 147 255 10.33407 
-0.1311773 -0.05008662 0.5468213 135 138 138 255 7.953411 
-0.08553624 -0.0594492 0.5468213 135 138 137 255 9.204507 
0.01521349 -0.02300823 0.5468213 128 128 125 255 9.764583 
0.09702802 -0.01394236 0.5468213 126 124 121 255 9.226194 
-0.03989518 -0.04749405 0.5468213 133 135 133 255 9.781505 
0.05138695 -0.02024806 0.5468213 127 126 123 255 9.572028 
0.1198486 -0.008513808 0.5468213 125 122 119 255 8.850524 
-0.1083568 -0.05672836 0.5468213 135 138 138 255 8.770004 
0.005745888 -0.02821755 0.5468213 128 129 126 255 9.791307 
0.02856648 -0.02149522 0.5468213 127 127 124 255 9.702355 
-0.06271565 -0.05622435 0.5468213 135 138 137 255 9.542455 
0.07420754 -0.01885247 0.5468213 126 125 122 255 9.420962 
-0.01707458 -0.04020452 0.5468213 131 132 130 255 9.824456 
-0.03538096 -0.04582882 0.5468213 132 134 133 255 9.804174 
-0.1311773 -0.04582882 0.5250935 142 147 150 255 8.564962 
0.07420754 -0.02300823 0.5315453 131 126 122 255 10.05513 
0.005745888 -0.02300823 0.5346355 128 129 126 255 10.2334 
-0.03989518 -0.04582882 0.5291923 133 135 134 255 10.34113 
0.09702802 -0.02300823 0.5289004 130 125 121 255 9.972977 
0.03997672 -0.02068222 0.533129 129 129 124 255 10.17147 
0.0671699 -0.02391887 0.5258868 131 127 123 255 10.31803 
-0.00532794 -0.02805269 0.53338 128 129 126 255 10.27553 
0.08561778 -0.02474666 0.5264896 130 126 121 255 10.15434 
0.01683235 -0.02040434 0.53338 129 129 125 255 10.24258 
-0.02904999 -0.03964365 0.5312626 130 132 130 255 10.31668 
0.02750063 -0.02300823 0.5696418 127 127 124 255 8.703467 
0.1092656 -0.0001877546 0.5696418 125 123 120 255 8.050047 
0.005745888 -0.02620566 0.5696418 128 129 126 255 8.796762 
0.09702802 -0.01005197 0.5696418 126 124 121 255 8.235937 
0.05138695 -0.02148676 0.5696418 127 126 123 255 8.566193 
0.1198486 0.008551717 0.5696418 125 121 119 255 7.77314 
-0.01707458 -0.03321111 0.5696418 130 131 129 255 8.856516 
0.07420754 -0.01829231 0.5696418 126 125 122 255 8.423902 
0.02856648 -0.02288032 0.5696418 127 127 124 255 8.697926 
0.1198486 -0.0001877546 0.5557947 125 122 119 255 8.521257 
0.126756 0.02263284 0.5924624 124 121 118 255 5 
0.09702802 -0.0107528 0.5924624 126 124 121 255 5.299073 
0.1198486 0.009639025 0.5924624 125 121 119 255 5 
0.1111498 -0.0001877546 0.5924624 125 122 120 255 5.265881 
0.07420754 -0.02241528 0.5924624 127 126 122 255 5.327585 
0.02856648 -0.02300823 0.5701789 127 127 124 255 8.663109 
0.05138695 -0.02300823 0.580234 127 126 123 255 7.657734 
0.1372706 0.113915 0.6381034 126 125 122 255 5 
0.1198486 0.08441293 0.6381034 126 124 122 255 5 
0.1058834 0.0682739 0.6381034 126 125 122 255 5 
0.1198486 0.02263284 0.6150863 124 121 118 255 5 
0.1198486 0.0682739 0.6268429 124 122 119 255 5 
0.1324414 0.0473423 0.601963 124 121 118 255 5 
0.1523697 0.159556 0.6837445 126 125 122 255 4.766067 
0.1198486 0.113915 0.6616372 126 125 122 255 5 
3 50 58 46 
3 51 57 47 
3 46 57 51 
3 58 57 46 
3 47 57 53 
3 54 58 50 
3 57 58 54 
3 54 53 57 
3 87 111 68 
3 50 46 67 
3 85 50 67 
3 117 50 85 
3 72 108 66 
3 47 108 72 
3 51 47 72 
3 46 51 72 
3 72 67 46 
3 132 113 126 
3 119 113 132 
3 120 98 116 
3 113 119 70 
3 102 98 120 
3 107 125 64 
3 50 114 54 
3 100 114 50 
3 66 108 83 
3 117 100 50 
3 107 119 132 
3 132 130 107 
3 68 111 63 
3 115 109 76 
3 127 108 47 
3 53 127 47 
3 110 127 53 
3 114 110 53 
3 53 54 114 
3 113 102 120 
3 92 103 84 
3 70 80 113 
3 76 65 115 
3 63 109 77 
3 111 109 63 
3 108 127 83 
3 109 111 87 
3 87 76 109 
3 98 102 60 
3 120 126 113 
3 60 78 98 
3 64 71 107 
3 86 115 65 
3 98 115 86 
3 125 107 130 
3 64 125 82 
3 132 126 90 
3 90 81 132 
3 101 106 89 
3 130 135 125 
3 119 107 71 
3 71 70 119 
3 109 115 74 
3 74 77 109 
3 74 98 78 
3 115 98 74 
3 82 101 91 
3 130 132 81 
3 135 101 82 
3 116 98 86 
3 120 116 79 
3 89 91 101 
3 81 93 130 
3 125 135 82 
3 79 116 86 
3 79 73 120 
3 106 117 85 
3 85 89 106 
3 126 120 73 
3 73 90 126 
3 84 130 93 
3 135 130 84 
3 103 135 84 
3 129 101 118 
3 106 101 129 
3 100 106 129 
3 117 106 100 
3 102 113 80 
3 118 103 92 
3 80 60 102 
3 118 135 103 
3 101 135 118 
3 77 74 166 
3 91 89 181 
3 212 204 71 
3 224 230 87 
3 202 224 87 
3 218 197 203 
3 208 197 218 
3 85 67 165 
3 165 170 85 
3 72 66 167 
3 167 182 72 
3 67 72 182 
3 182 165 67 
3 84 211 92 
3 200 211 84 
3 166 180 77 
3 71 64 212 
3 210 206 176 
3 167 215 175 
3 83 215 167 
3 82 212 64 
3 66 83 167 
3 176 168 210 
3 202 208 218 
3 218 224 202 
3 183 210 168 
3 174 70 169 
3 218 203 214 
3 68 63 179 
3 219 231 65 
3 65 76 219 
3 166 78 185 
3 197 208 173 
3 173 186 197 
3 200 210 183 
3 224 218 214 
3 214 213 224 
3 181 187 91 
3 208 202 184 
3 65 231 86 
3 205 200 183 
3 231 219 201 
3 201 223 231 
3 204 212 177 
3 177 189 204 
3 80 70 174 
3 184 173 208 
3 202 68 179 
3 205 211 200 
3 223 207 79 
3 86 223 79 
3 71 204 188 
3 70 71 188 
3 169 70 188 
3 89 85 170 
3 170 181 89 
3 188 204 189 
3 68 202 87 
3 74 78 166 
3 184 202 179 
3 90 210 81 
3 206 210 90 
3 82 91 187 
3 212 82 187 
3 230 219 76 
3 210 200 93 
3 93 81 210 
3 179 77 180 
3 63 77 179 
3 177 212 187 
3 93 200 84 
3 171 207 191 
3 231 223 86 
3 207 226 73 
3 78 60 164 
3 76 87 230 
3 230 224 213 
3 213 227 230 
3 226 207 171 
3 164 185 78 
3 191 223 193 
3 206 226 171 
3 171 176 206 
3 201 230 227 
3 219 230 201 
3 73 79 207 
3 207 223 191 
3 73 206 90 
3 226 206 73 
3 164 80 174 
3 60 80 164 
3 193 262 191 
3 180 166 245 
3 245 252 180 
3 270 273 168 
3 245 185 256 
3 166 185 245 
3 189 177 240 
3 240 257 189 
3 167 263 182 
3 268 263 167 
3 165 264 170 
3 269 264 165 
3 182 269 165 
3 263 269 182 
3 265 261 174 
3 174 169 265 
3 247 179 239 
3 184 179 247 
3 168 176 270 
3 179 180 252 
3 252 239 179 
3 240 187 253 
3 186 173 238 
3 238 254 186 
3 188 265 169 
3 238 184 247 
3 173 184 238 
3 164 260 235 
3 185 164 235 
3 168 273 183 
3 187 266 246 
3 246 266 241 
3 253 187 246 
3 181 266 187 
3 256 185 235 
3 235 260 249 
3 264 266 181 
3 260 261 250 
3 250 249 260 
3 261 260 164 
3 181 170 264 
3 261 265 244 
3 244 250 261 
3 164 174 261 
3 191 271 171 
3 177 187 240 
3 188 189 257 
3 265 188 257 
3 244 265 257 
3 262 271 191 
3 271 270 176 
3 176 171 271 
3 312 308 247 
3 238 310 254 
3 313 310 238 
3 246 306 253 
3 240 253 306 
3 247 313 238 
3 308 313 247 
3 247 239 312 
3 252 312 239 
3 305 312 252 
3 252 245 305 
3 118 92 211 
3 268 167 175 
3 193 223 201 
3 215 83 127 
3 129 118 211 
3 266 264 269 
3 193 201 227 
3 100 129 211 
3 266 269 263 
3 266 263 268 
3 193 227 213 
3 114 100 211 
3 127 110 114 
3 127 114 211 
3 193 213 214 
3 308 312 305 
3 257 240 306 
3 241 266 268 
3 205 183 273 
3 205 273 270 
3 306 246 241 
3 244 257 306 
3 305 245 256 
3 305 256 235 
3 250 244 306 
3 306 241 268 
3 305 235 249 
3 186 254 310 
3 186 310 313 
3 215 127 211 
3 186 313 308 
3 214 203 197 
3 306 268 175 
3 308 305 249 
3 271 262 193 
3 270 271 193 
3 215 211 205 
3 215 205 270 
3 250 306 175 
3 175 215 270 
3 250 175 270 
3 249 250 270 
3 308 249 270 
